HIERARCHY
ROOT Hips
{
	OFFSET 0.000000 0.000000 0.000000
	CHANNELS 6 Xposition Yposition Zposition Zrotation Yrotation Xrotation 
	JOINT LHipJoint
	{
		OFFSET 0.000000 0.000000 0.000000
		CHANNELS 3 Zrotation Yrotation Xrotation
		JOINT LeftUpLeg
		{
			OFFSET 1.363060 -1.794630 0.839290
			CHANNELS 3 Zrotation Yrotation Xrotation
			JOINT LeftLeg
			{
				OFFSET 2.448110 -6.726130 0.000000
				CHANNELS 3 Zrotation Yrotation Xrotation
				JOINT LeftFoot
				{
					OFFSET 2.562200 -7.039590 0.000000
					CHANNELS 3 Zrotation Yrotation Xrotation
					JOINT LeftToeBase
					{
						OFFSET 0.157640 -0.433110 2.322550
						CHANNELS 3 Zrotation Yrotation Xrotation
						End Site
						{
							OFFSET 0.000000 0.000000 0.000000
						}
					}
				}
			}
		}
	}
	JOINT RHipJoint
	{
		OFFSET 0.000000 0.000000 0.000000
		CHANNELS 3 Zrotation Yrotation Xrotation
		JOINT RightUpLeg
		{
			OFFSET -1.305520 -1.794630 0.839290
			CHANNELS 3 Zrotation Yrotation Xrotation
			JOINT RightLeg
			{
				OFFSET -2.542530 -6.985550 0.000000
				CHANNELS 3 Zrotation Yrotation Xrotation
				JOINT RightFoot
				{
					OFFSET -2.568260 -7.056230 0.000000
					CHANNELS 3 Zrotation Yrotation Xrotation
					JOINT RightToeBase
					{
						OFFSET -0.164730 -0.452590 2.363150
						CHANNELS 3 Zrotation Yrotation Xrotation
						End Site
						{
							OFFSET 0.000000 0.000000 0.000000
						}
					}
				}
			}
		}
	}
	JOINT LowerBack
	{
		OFFSET 0.000000 0.000000 0.000000
		CHANNELS 3 Zrotation Yrotation Xrotation
		JOINT Spine
		{
			OFFSET 0.028270 2.035590 -0.193380
			CHANNELS 3 Zrotation Yrotation Xrotation
			JOINT Spine1
			{
				OFFSET 0.056720 2.048850 -0.042750
				CHANNELS 3 Zrotation Yrotation Xrotation
				JOINT Neck
				{
					OFFSET 0.000000 0.000000 0.000000
					CHANNELS 3 Zrotation Yrotation Xrotation
					JOINT Neck1
					{
						OFFSET -0.054170 1.746240 0.172020
						CHANNELS 3 Zrotation Yrotation Xrotation
						JOINT Head
						{
							OFFSET 0.104070 1.761360 -0.123970
							CHANNELS 3 Zrotation Yrotation Xrotation
							End Site
							{
								OFFSET 0.000000 0.000000 0.000000
							}
						}
					}
				}
				JOINT LeftShoulder
				{
					OFFSET 0.000000 0.000000 0.000000
					CHANNELS 3 Zrotation Yrotation Xrotation
					JOINT LeftArm
					{
						OFFSET 3.362410 1.200890 -0.311210
						CHANNELS 3 Zrotation Yrotation Xrotation
						JOINT LeftForeArm
						{
							OFFSET 4.983000 -0.000000 -0.000000
							CHANNELS 3 Zrotation Yrotation Xrotation
							JOINT LeftHand
							{
								OFFSET 3.483560 -0.000000 -0.000000
								CHANNELS 3 Zrotation Yrotation Xrotation
								JOINT LeftFingerBase
								{
									OFFSET 0.000000 0.000000 0.000000
									CHANNELS 3 Zrotation Yrotation Xrotation
									JOINT LeftHandIndex1
									{
										OFFSET 0.715260 -0.000000 -0.000000
										CHANNELS 3 Zrotation Yrotation Xrotation
										End Site
										{
											OFFSET 0.000000 0.000000 0.000000
										}
									}
								}
								JOINT LThumb
								{
									OFFSET 0.000000 0.000000 0.000000
									CHANNELS 3 Zrotation Yrotation Xrotation
									End Site
									{
										OFFSET 0.000000 0.000000 0.000000
									}
								}
							}
						}
					}
				}
				JOINT RightShoulder
				{
					OFFSET 0.000000 0.000000 0.000000
					CHANNELS 3 Zrotation Yrotation Xrotation
					JOINT RightArm
					{
						OFFSET -3.136600 1.374050 -0.404650
						CHANNELS 3 Zrotation Yrotation Xrotation
						JOINT RightForeArm
						{
							OFFSET -5.241900 -0.000000 -0.000000
							CHANNELS 3 Zrotation Yrotation Xrotation
							JOINT RightHand
							{
								OFFSET -3.444170 -0.000000 -0.000000
								CHANNELS 3 Zrotation Yrotation Xrotation
								JOINT RightFingerBase
								{
									OFFSET 0.000000 0.000000 0.000000
									CHANNELS 3 Zrotation Yrotation Xrotation
									JOINT RightHandIndex1
									{
										OFFSET -0.622530 -0.000000 -0.000000
										CHANNELS 3 Zrotation Yrotation Xrotation
										End Site
										{
											OFFSET 0.000000 0.000000 0.000000
										}
									}
								}
								JOINT RThumb
								{
									OFFSET 0.000000 0.000000 0.000000
									CHANNELS 3 Zrotation Yrotation Xrotation
									End Site
									{
										OFFSET 0.000000 0.000000 0.000000
									}
								}
							}
						}
					}
				}
			}
		}
	}
}
MOTION
Frames: 11
Frame Time: 0.008333
-20.329929 14.962689 9.683017 -8.842523 67.645154 46.772178 6.124666 -0.397944 -1.191192 -31.824117 -13.300495 -110.074811 19.194476 23.114382 89.222394 0.147520 -3.248118 3.296521 1.132600 -6.759300 -19.004200 -6.199176 0.408300 -2.265241 18.082447 -10.893077 -53.872611 -5.921079 -16.603001 48.091817 -1.366061 0.740584 -16.361806 -6.376300 14.783300 -46.473800 1.543636 4.072494 -9.621263 0.256547 4.904688 -3.279728 2.026535 2.398420 6.762042 -7.952948 -4.908480 -7.820130 3.945026 -4.185567 -3.795875 6.208500 0.736200 -6.465500 -0.571975 2.011097 0.611935 -71.026136 33.665339 38.054322 6.353686 -25.129315 -2.039493 0.250061 -1.652270 -11.843866 19.834822 31.653913 11.298300 -7.125000 0.000000 0.000000 -15.911500 64.341500 -7.544800 -2.139337 0.527605 1.729467 69.024281 29.752241 6.455334 -34.274536 42.711405 -18.465528 0.696185 -0.799494 -27.696383 -29.056057 33.516753 -17.680700 7.125000 0.000000 0.000000 1.935300 8.350100 2.197000 
-19.857178 15.050146 9.888881 -9.405269 68.049171 46.078276 6.040771 -0.420319 -1.186125 -33.590314 -13.519518 -109.842547 17.295080 23.073506 84.108133 0.327355 -5.138033 4.335999 0.951600 -6.212100 -17.401200 -5.876827 0.553898 -2.197115 17.425729 -10.353954 -49.752373 -4.875232 -15.590322 44.513449 -1.032943 0.386693 -13.291482 -6.575200 14.963500 -47.248700 -0.432013 3.327403 -9.656317 0.457310 4.096901 -3.323299 3.969464 1.945246 6.553558 -8.557712 -3.535381 -8.050166 3.403580 -2.362698 -2.785443 5.696600 1.350200 -5.950000 -0.196282 1.848005 0.480176 -73.347437 35.740785 35.356590 5.807448 -24.933336 -1.948239 0.264561 -1.546474 -11.074761 19.222620 31.471285 10.818700 -7.125000 0.000000 0.000000 -16.438700 63.891900 -7.629000 -2.142779 0.443030 1.589096 71.029461 26.997424 7.216492 -38.138123 45.166111 -21.351896 0.785867 -0.636060 -30.110601 -30.498523 34.432010 -19.085600 7.125000 0.000000 0.000000 1.274800 9.610700 1.470100 
-19.374184 15.128350 10.092543 -9.819661 68.465849 45.387304 6.007427 -0.474649 -1.229807 -35.653566 -13.668043 -109.111911 15.363952 22.877524 78.927000 0.484839 -6.899933 5.242688 0.682100 -5.280700 -14.710800 -5.463315 0.651165 -2.055392 16.574114 -9.668862 -45.556573 -3.885577 -14.517001 40.934105 -0.713332 -0.025306 -9.804447 -6.852000 15.206000 -48.312300 -1.567100 2.746992 -9.539946 0.451902 3.542564 -3.355569 3.912438 1.663237 6.245968 -8.111174 -3.048276 -7.643062 3.912992 -1.771141 -2.852849 5.831300 1.575300 -6.182000 -0.086103 1.856522 0.445608 -74.015262 37.224685 33.345659 5.417746 -24.518103 -1.849722 0.304477 -1.535558 -11.051668 19.020200 31.289308 10.624900 -7.125000 0.000000 0.000000 -16.562100 63.656400 -7.596700 -2.363140 0.339070 1.560204 74.450760 24.042841 6.831896 -41.443598 47.076177 -23.978433 0.747333 -0.557617 -28.669441 -29.779147 33.644871 -18.211700 7.125000 0.000000 0.000000 1.442400 8.463000 1.639400 
-18.890529 15.207216 10.288164 -10.743077 68.940937 43.874398 5.949334 -0.503398 -1.330547 -37.733388 -13.539976 -107.930952 13.470729 22.523115 73.819964 0.615146 -8.382728 6.091303 0.663100 -5.208100 -14.503000 -4.990032 0.738301 -1.870778 15.792770 -8.741828 -40.997475 -2.948330 -13.361191 37.337905 -0.372778 -0.712315 -5.730768 -7.166900 15.470900 -49.502900 -2.682266 2.181966 -9.155845 0.515760 2.951179 -3.330172 4.408543 1.335284 6.278811 -7.995377 -2.459883 -7.705687 4.095499 -1.024782 -2.620811 5.776600 1.845800 -6.122000 0.098222 1.844918 0.436835 -75.745232 37.801495 30.294514 4.762064 -23.687854 -1.664704 0.304347 -1.459659 -10.514769 19.120109 31.103772 10.594100 -7.125000 0.000000 0.000000 -16.262100 63.429600 -7.369200 -2.497354 0.222343 1.510794 77.239150 21.284287 6.627195 -45.015950 48.911858 -26.869163 0.781287 -0.439977 -28.453846 -30.031266 32.201932 -17.749800 7.125000 0.000000 0.000000 0.919600 6.922800 1.023900 
-18.411280 15.286852 10.470457 -12.632366 69.559702 40.863548 5.922964 -0.516903 -1.514623 -39.539654 -12.961635 -106.142926 11.715879 22.039417 68.991783 0.652827 -8.021110 8.057821 0.012600 -0.724700 -1.991700 -4.396347 0.766440 -1.586923 15.206060 -7.575721 -35.998040 -2.112980 -12.190051 33.902397 -0.038227 -1.695255 -0.904696 -7.438100 15.690000 -50.512500 -2.876860 1.854896 -8.074662 0.487711 2.588006 -3.261936 3.752643 1.137709 6.394197 -7.267177 -1.941841 -8.052077 4.200950 -0.389574 -2.013296 5.669000 2.003700 -5.706400 0.162051 1.884669 0.453305 -76.557936 37.547715 27.586952 4.256657 -22.736296 -1.501085 0.317797 -1.420203 -10.333582 19.017121 31.182012 10.531500 -7.125000 0.000000 0.000000 -16.446200 63.438100 -7.458100 -2.706637 0.079922 1.439279 80.524647 18.842502 5.892782 -47.818332 50.244079 -29.198359 0.774122 -0.401356 -27.550136 -29.087521 30.955728 -16.571000 7.125000 0.000000 0.000000 1.164300 5.297200 1.267100 
-17.928065 15.365056 10.648785 -15.266416 70.249241 36.969564 5.905453 -0.505081 -1.733916 -40.818565 -12.174158 -103.996792 10.126569 21.468857 64.584429 0.815024 -10.311708 7.163574 0.966100 -6.258000 -17.534900 -3.775115 0.746081 -1.260808 14.919465 -6.209664 -31.081894 -1.411896 -11.072175 30.755762 0.247768 -3.044343 4.434911 -7.619000 15.831700 -51.178300 -2.748609 1.639464 -6.681470 0.450323 2.322283 -3.170049 2.880712 1.028089 5.889220 -6.405104 -2.975648 -6.261419 4.663903 -1.948342 -2.650954 5.789600 1.247500 -6.548300 0.257259 1.987788 0.675776 -76.934115 37.155202 25.520050 3.853700 -21.865519 -1.360628 0.329670 -1.399701 -10.291271 18.959453 31.439843 10.555500 -7.125000 0.000000 0.000000 -16.738800 63.649500 -7.677400 -2.884132 0.116427 1.606272 83.607148 16.269875 5.240448 -51.041694 51.591754 -31.905817 0.811555 -0.326712 -31.824111 -27.040867 30.411767 -15.064200 7.125000 0.000000 0.000000 2.201000 4.177300 2.357200 
-17.442207 15.433788 10.821495 -18.115555 70.809388 32.891310 5.873146 -0.487966 -1.907680 -41.708262 -11.357854 -101.711547 8.738823 20.861491 60.629193 0.872650 -10.136719 8.634236 0.622100 -5.047500 -14.044000 -3.221668 0.663795 -0.903090 14.836304 -4.676636 -26.670110 -0.889607 -10.119868 28.156895 0.408088 -4.471689 9.351939 -7.748400 15.931000 -51.651100 -2.929340 1.257766 -5.455684 0.520527 1.781367 -3.159786 3.326355 0.765070 5.843456 -7.376136 -2.359652 -7.229765 5.402541 -1.416245 -1.067626 6.639700 1.447500 -5.259300 0.246132 1.775937 0.615665 -79.008778 36.720783 22.077162 3.371362 -20.914547 -1.227666 0.287540 -1.287092 -9.590015 19.237703 31.551379 10.717400 -7.125000 0.000000 0.000000 -16.408400 63.713600 -7.546300 -3.167779 0.034905 1.441434 85.496093 13.715518 5.163888 -53.764854 52.657205 -34.186842 0.814193 -0.247731 -35.918714 -24.445646 29.652478 -13.201500 7.125000 0.000000 0.000000 3.547100 2.731900 3.719200 
-16.951392 15.494589 10.988478 -21.219476 71.236929 28.694342 5.879393 -0.493165 -2.105307 -42.358165 -10.440243 -99.485710 7.595455 20.264899 57.278349 0.929075 -9.813623 9.527109 0.372900 -3.922000 -10.857200 -2.765500 0.548190 -0.603003 14.900899 -2.789084 -22.793223 -0.573977 -9.485837 26.429334 0.510510 -5.905485 13.029046 -7.623500 15.835300 -51.195000 -2.816631 1.045643 -4.461431 0.524379 1.479002 -3.105687 3.031182 0.605146 6.044123 -7.211805 -1.683129 -8.024785 5.585350 -0.549154 -0.346601 6.744400 1.788400 -4.656700 0.271398 1.734534 0.639057 -80.213568 35.493405 18.861973 2.916391 -19.897955 -1.100661 0.255632 -1.210814 -8.964299 19.538928 31.687071 10.912000 -7.125000 0.000000 0.000000 -16.104300 63.845200 -7.452200 -3.346346 -0.068978 1.344569 87.517659 11.295023 4.923925 -56.634708 53.717921 -36.635211 0.829339 -0.189069 -40.177572 -22.597904 29.026901 -11.918200 7.125000 0.000000 0.000000 4.518900 1.681500 4.663900 
-16.457493 15.545257 11.143014 -23.868094 71.320214 24.951561 5.887063 -0.515411 -2.315607 -43.015176 -9.315762 -97.340123 6.719969 19.732221 54.639655 0.976780 -9.552683 9.864609 0.338600 -3.739400 -10.344500 -2.468438 0.411867 -0.388225 14.905608 -0.688592 -19.426201 -0.491835 -9.236897 25.804981 0.569039 -7.155106 15.773434 -7.059800 15.382000 -49.100100 -2.887214 0.839593 -3.649860 0.513595 1.227136 -3.003653 2.750584 0.453801 6.420330 -6.946326 -1.284899 -8.353970 5.804526 -0.022639 -0.191806 6.807000 2.027300 -4.596100 0.310594 1.775592 0.763234 -81.518007 33.797173 15.240583 2.509102 -18.943438 -0.994641 0.226006 -1.126168 -8.251152 20.086984 32.182213 11.355900 -7.125000 0.000000 0.000000 -15.826000 64.382700 -7.518400 -3.471955 -0.205568 1.344797 89.150787 9.090362 5.076456 -59.281553 54.669320 -38.891782 0.844668 -0.128355 -43.621143 -21.876880 27.847657 -11.113800 7.125000 0.000000 0.000000 4.770300 0.316200 4.813300 
-15.976922 15.557483 11.288518 -26.602411 71.435339 21.077345 5.918728 -0.566193 -2.537810 -43.290828 -8.262210 -95.198682 6.223105 19.391364 53.060720 0.954229 -8.318048 9.697495 0.001400 -0.243500 -0.669000 -2.286576 0.271805 -0.244625 15.292251 1.051217 -16.634749 -0.630205 -9.388158 26.311055 0.579144 -8.140023 17.881791 -6.013400 14.441400 -45.035600 -2.455264 0.644954 -2.972986 0.450792 0.983409 -2.855950 1.750518 0.342604 7.020439 -6.311385 -1.157193 -8.420051 6.163399 0.149054 -0.326709 6.949900 2.132900 -4.830200 0.247456 1.928711 0.943402 -82.135723 31.717942 12.188932 2.274156 -18.089978 -0.905687 0.213724 -1.084579 -7.973217 20.793840 32.714169 11.929900 -7.125000 0.000000 0.000000 -15.440600 65.050200 -7.570000 -3.638050 -0.416335 1.416384 90.974851 7.236890 5.434837 -61.595079 55.501803 -40.812098 0.861615 -0.110745 -45.934229 -22.230541 26.216902 -10.729900 7.125000 0.000000 0.000000 4.357300 -1.272100 4.272000 
-15.495250 15.555170 11.438649 -28.807612 71.660433 18.603892 5.912873 -0.609942 -2.573841 -43.629564 -7.968368 -93.880543 6.148271 19.327635 52.733443 0.811601 -6.034314 9.035943 1.792000 8.418600 23.993000 -2.340656 0.234169 -0.183266 16.012504 2.365696 -15.544415 -0.910416 -9.903588 27.942952 0.492444 -7.414698 17.392299 -5.901000 14.331800 -44.583300 -2.621960 0.335053 -2.765448 0.488524 0.577405 -2.879727 1.928727 0.118443 6.988019 -6.581736 -0.606737 -8.715429 6.224246 0.903745 -0.012905 7.043200 2.482000 -4.639300 0.315637 1.839388 0.998473 -83.575192 30.041040 8.714248 1.932323 -17.246047 -0.845539 0.167760 -0.978260 -7.079428 21.301692 32.862944 12.257900 -7.125000 0.000000 0.000000 -14.851300 65.225100 -7.335100 -3.743375 -0.430468 1.364684 91.749727 4.908903 5.737090 -63.693504 56.167184 -42.574591 0.865683 -0.051115 -48.293284 -22.564871 24.953257 -10.438900 7.125000 0.000000 0.000000 3.988600 -2.535900 3.817600 
